<mxfile host="www.draw.io" modified="2019-12-08T04:52:31.300Z" agent="Mozilla/5.0 (Windows NT 6.1; WOW64) AppleWebKit/537.36 (KHTML, like Gecko) Chrome/75.0.3770.100 Safari/537.36" etag="GcXLxvtaD6n-S8NVw1R2" version="12.3.8" type="github" pages="1">
  <diagram id="WnAKHo4Y28c4Se3l6WRv" name="第 1 页">
    <mxGraphModel dx="854" dy="478" grid="1" gridSize="10" guides="1" tooltips="1" connect="1" arrows="1" fold="1" page="1" pageScale="1" pageWidth="827" pageHeight="1169" math="0" shadow="0">
      <root>
        <mxCell id="0"/>
        <mxCell id="1" parent="0"/>
        <mxCell id="Ra1Ot_p0R3nydMWMHYjl-52" value="" style="rounded=0;whiteSpace=wrap;html=1;fontSize=14;fillColor=#e1d5e7;strokeColor=#9673a6;dashed=1;" vertex="1" parent="1">
          <mxGeometry x="80" y="120" width="190" height="600" as="geometry"/>
        </mxCell>
        <mxCell id="Ra1Ot_p0R3nydMWMHYjl-53" value="" style="rounded=0;whiteSpace=wrap;html=1;fontSize=14;fillColor=#e1d5e7;strokeColor=none;dashed=1;shadow=0;glass=0;" vertex="1" parent="1">
          <mxGeometry x="270" y="120" width="190" height="600" as="geometry"/>
        </mxCell>
        <mxCell id="Ra1Ot_p0R3nydMWMHYjl-54" value="" style="rounded=0;whiteSpace=wrap;html=1;fontSize=14;fillColor=#e1d5e7;strokeColor=#9673a6;dashed=1;" vertex="1" parent="1">
          <mxGeometry x="460" y="120" width="190" height="600" as="geometry"/>
        </mxCell>
        <mxCell id="Ra1Ot_p0R3nydMWMHYjl-1" value="结算支付流程" style="rounded=0;whiteSpace=wrap;html=1;fontSize=15;align=center;fillColor=#CC0000;fontColor=#FFFFFF;" vertex="1" parent="1">
          <mxGeometry x="80" y="40" width="570" height="40" as="geometry"/>
        </mxCell>
        <mxCell id="Ra1Ot_p0R3nydMWMHYjl-2" value="企业货主" style="rounded=0;whiteSpace=wrap;html=1;fontSize=14;fillColor=#999999;" vertex="1" parent="1">
          <mxGeometry x="80" y="80" width="190" height="40" as="geometry"/>
        </mxCell>
        <mxCell id="Ra1Ot_p0R3nydMWMHYjl-5" value="平台财务员" style="rounded=0;whiteSpace=wrap;html=1;fontSize=14;fillColor=#999999;" vertex="1" parent="1">
          <mxGeometry x="270" y="80" width="190" height="40" as="geometry"/>
        </mxCell>
        <mxCell id="Ra1Ot_p0R3nydMWMHYjl-6" value="经纪人/司机" style="rounded=0;whiteSpace=wrap;html=1;fontSize=14;fillColor=#999999;" vertex="1" parent="1">
          <mxGeometry x="460" y="80" width="190" height="40" as="geometry"/>
        </mxCell>
        <mxCell id="Ra1Ot_p0R3nydMWMHYjl-9" value="" style="edgeStyle=orthogonalEdgeStyle;rounded=0;orthogonalLoop=1;jettySize=auto;html=1;fontSize=14;" edge="1" parent="1" source="Ra1Ot_p0R3nydMWMHYjl-7">
          <mxGeometry relative="1" as="geometry">
            <mxPoint x="317.5" y="267" as="targetPoint"/>
          </mxGeometry>
        </mxCell>
        <mxCell id="Ra1Ot_p0R3nydMWMHYjl-7" value="结算单" style="rounded=1;whiteSpace=wrap;html=1;fontSize=14;align=center;" vertex="1" parent="1">
          <mxGeometry x="127.5" y="247" width="95" height="40" as="geometry"/>
        </mxCell>
        <mxCell id="Ra1Ot_p0R3nydMWMHYjl-15" style="edgeStyle=orthogonalEdgeStyle;rounded=0;orthogonalLoop=1;jettySize=auto;html=1;entryX=0.5;entryY=0;entryDx=0;entryDy=0;fontSize=14;" edge="1" parent="1" source="Ra1Ot_p0R3nydMWMHYjl-10" target="Ra1Ot_p0R3nydMWMHYjl-14">
          <mxGeometry relative="1" as="geometry">
            <Array as="points">
              <mxPoint x="365" y="307"/>
              <mxPoint x="175" y="307"/>
            </Array>
          </mxGeometry>
        </mxCell>
        <mxCell id="Ra1Ot_p0R3nydMWMHYjl-23" value="通过" style="text;html=1;align=center;verticalAlign=middle;resizable=0;points=[];;labelBackgroundColor=#ffffff;fontSize=14;" vertex="1" connectable="0" parent="Ra1Ot_p0R3nydMWMHYjl-15">
          <mxGeometry x="-0.2083" y="3" relative="1" as="geometry">
            <mxPoint x="-2.5" y="-10" as="offset"/>
          </mxGeometry>
        </mxCell>
        <mxCell id="Ra1Ot_p0R3nydMWMHYjl-20" value="" style="edgeStyle=orthogonalEdgeStyle;rounded=0;orthogonalLoop=1;jettySize=auto;html=1;fontSize=14;entryX=1;entryY=0.5;entryDx=0;entryDy=0;" edge="1" parent="1" source="Ra1Ot_p0R3nydMWMHYjl-10" target="Ra1Ot_p0R3nydMWMHYjl-17">
          <mxGeometry relative="1" as="geometry">
            <mxPoint x="364.5" y="162" as="targetPoint"/>
            <Array as="points">
              <mxPoint x="365" y="184"/>
            </Array>
          </mxGeometry>
        </mxCell>
        <mxCell id="Ra1Ot_p0R3nydMWMHYjl-24" value="不通过" style="text;html=1;align=center;verticalAlign=middle;resizable=0;points=[];;labelBackgroundColor=#ffffff;fontSize=14;" vertex="1" connectable="0" parent="Ra1Ot_p0R3nydMWMHYjl-20">
          <mxGeometry x="0.1811" y="3" relative="1" as="geometry">
            <mxPoint x="-5.5" y="-7" as="offset"/>
          </mxGeometry>
        </mxCell>
        <mxCell id="Ra1Ot_p0R3nydMWMHYjl-10" value="结算单审核" style="rhombus;whiteSpace=wrap;html=1;glass=0;comic=0;fontSize=14;align=center;" vertex="1" parent="1">
          <mxGeometry x="319" y="242" width="91" height="50" as="geometry"/>
        </mxCell>
        <mxCell id="Ra1Ot_p0R3nydMWMHYjl-26" value="" style="edgeStyle=orthogonalEdgeStyle;rounded=0;orthogonalLoop=1;jettySize=auto;html=1;fontSize=14;" edge="1" parent="1" source="Ra1Ot_p0R3nydMWMHYjl-14" target="Ra1Ot_p0R3nydMWMHYjl-25">
          <mxGeometry relative="1" as="geometry"/>
        </mxCell>
        <mxCell id="Ra1Ot_p0R3nydMWMHYjl-14" value="在线支付" style="rounded=1;whiteSpace=wrap;html=1;fontSize=14;align=center;" vertex="1" parent="1">
          <mxGeometry x="127.5" y="350" width="95" height="40" as="geometry"/>
        </mxCell>
        <mxCell id="Ra1Ot_p0R3nydMWMHYjl-29" value="" style="edgeStyle=orthogonalEdgeStyle;rounded=0;orthogonalLoop=1;jettySize=auto;html=1;fontSize=14;" edge="1" parent="1" source="Ra1Ot_p0R3nydMWMHYjl-25" target="Ra1Ot_p0R3nydMWMHYjl-28">
          <mxGeometry relative="1" as="geometry"/>
        </mxCell>
        <mxCell id="Ra1Ot_p0R3nydMWMHYjl-33" value="" style="edgeStyle=orthogonalEdgeStyle;rounded=0;orthogonalLoop=1;jettySize=auto;html=1;fontSize=14;" edge="1" parent="1" source="Ra1Ot_p0R3nydMWMHYjl-25" target="Ra1Ot_p0R3nydMWMHYjl-32">
          <mxGeometry relative="1" as="geometry">
            <Array as="points">
              <mxPoint x="365" y="420"/>
              <mxPoint x="175" y="420"/>
            </Array>
          </mxGeometry>
        </mxCell>
        <mxCell id="Ra1Ot_p0R3nydMWMHYjl-35" value="同步银行支付结果" style="text;html=1;align=center;verticalAlign=middle;resizable=0;points=[];;labelBackgroundColor=#ffffff;fontSize=14;" vertex="1" connectable="0" parent="Ra1Ot_p0R3nydMWMHYjl-33">
          <mxGeometry x="-0.0909" y="-1" relative="1" as="geometry">
            <mxPoint as="offset"/>
          </mxGeometry>
        </mxCell>
        <mxCell id="Ra1Ot_p0R3nydMWMHYjl-25" value="平台公账" style="rounded=1;whiteSpace=wrap;html=1;fontSize=14;align=center;" vertex="1" parent="1">
          <mxGeometry x="317.5" y="350" width="95" height="40" as="geometry"/>
        </mxCell>
        <mxCell id="Ra1Ot_p0R3nydMWMHYjl-37" value="" style="edgeStyle=orthogonalEdgeStyle;rounded=0;orthogonalLoop=1;jettySize=auto;html=1;fontSize=14;" edge="1" parent="1" source="Ra1Ot_p0R3nydMWMHYjl-32">
          <mxGeometry relative="1" as="geometry">
            <mxPoint x="317.5" y="473" as="targetPoint"/>
          </mxGeometry>
        </mxCell>
        <mxCell id="Ra1Ot_p0R3nydMWMHYjl-32" value="申请开票" style="rounded=1;whiteSpace=wrap;html=1;fontSize=14;align=center;" vertex="1" parent="1">
          <mxGeometry x="127.5" y="453" width="95" height="40" as="geometry"/>
        </mxCell>
        <mxCell id="Ra1Ot_p0R3nydMWMHYjl-31" value="" style="edgeStyle=orthogonalEdgeStyle;rounded=0;orthogonalLoop=1;jettySize=auto;html=1;fontSize=14;" edge="1" parent="1" source="Ra1Ot_p0R3nydMWMHYjl-28" target="Ra1Ot_p0R3nydMWMHYjl-30">
          <mxGeometry relative="1" as="geometry"/>
        </mxCell>
        <mxCell id="Ra1Ot_p0R3nydMWMHYjl-28" value="个人账户" style="rounded=1;whiteSpace=wrap;html=1;fontSize=14;align=center;" vertex="1" parent="1">
          <mxGeometry x="507.5" y="350" width="95" height="40" as="geometry"/>
        </mxCell>
        <mxCell id="Ra1Ot_p0R3nydMWMHYjl-30" value="提现" style="rounded=1;whiteSpace=wrap;html=1;fontSize=14;align=center;" vertex="1" parent="1">
          <mxGeometry x="507.5" y="450" width="95" height="40" as="geometry"/>
        </mxCell>
        <mxCell id="Ra1Ot_p0R3nydMWMHYjl-18" value="" style="edgeStyle=orthogonalEdgeStyle;rounded=0;orthogonalLoop=1;jettySize=auto;html=1;fontSize=14;" edge="1" parent="1" source="Ra1Ot_p0R3nydMWMHYjl-17" target="Ra1Ot_p0R3nydMWMHYjl-7">
          <mxGeometry relative="1" as="geometry"/>
        </mxCell>
        <mxCell id="Ra1Ot_p0R3nydMWMHYjl-17" value="运单" style="rounded=1;whiteSpace=wrap;html=1;fontSize=14;align=center;" vertex="1" parent="1">
          <mxGeometry x="127.5" y="163.5" width="95" height="40" as="geometry"/>
        </mxCell>
        <mxCell id="Ra1Ot_p0R3nydMWMHYjl-44" value="" style="edgeStyle=orthogonalEdgeStyle;rounded=0;orthogonalLoop=1;jettySize=auto;html=1;fontSize=14;entryX=0.5;entryY=1;entryDx=0;entryDy=0;" edge="1" parent="1" source="Ra1Ot_p0R3nydMWMHYjl-40" target="Ra1Ot_p0R3nydMWMHYjl-32">
          <mxGeometry relative="1" as="geometry">
            <mxPoint x="365" y="578" as="targetPoint"/>
            <Array as="points">
              <mxPoint x="365" y="518"/>
              <mxPoint x="175" y="518"/>
            </Array>
          </mxGeometry>
        </mxCell>
        <mxCell id="Ra1Ot_p0R3nydMWMHYjl-46" value="不通过" style="text;html=1;align=center;verticalAlign=middle;resizable=0;points=[];;labelBackgroundColor=#ffffff;fontSize=14;" vertex="1" connectable="0" parent="Ra1Ot_p0R3nydMWMHYjl-44">
          <mxGeometry x="-0.166" y="-2" relative="1" as="geometry">
            <mxPoint as="offset"/>
          </mxGeometry>
        </mxCell>
        <mxCell id="Ra1Ot_p0R3nydMWMHYjl-49" style="edgeStyle=orthogonalEdgeStyle;rounded=0;orthogonalLoop=1;jettySize=auto;html=1;fontSize=14;entryX=0.984;entryY=0.6;entryDx=0;entryDy=0;entryPerimeter=0;" edge="1" parent="1" source="Ra1Ot_p0R3nydMWMHYjl-40" target="Ra1Ot_p0R3nydMWMHYjl-48">
          <mxGeometry relative="1" as="geometry">
            <mxPoint x="420" y="580" as="targetPoint"/>
            <Array as="points">
              <mxPoint x="440" y="473"/>
              <mxPoint x="440" y="580"/>
            </Array>
          </mxGeometry>
        </mxCell>
        <mxCell id="Ra1Ot_p0R3nydMWMHYjl-40" value="信息审核" style="rhombus;whiteSpace=wrap;html=1;glass=0;comic=0;fontSize=14;align=center;" vertex="1" parent="1">
          <mxGeometry x="319.5" y="448" width="91" height="50" as="geometry"/>
        </mxCell>
        <mxCell id="Ra1Ot_p0R3nydMWMHYjl-51" value="" style="edgeStyle=orthogonalEdgeStyle;rounded=0;orthogonalLoop=1;jettySize=auto;html=1;fontSize=14;" edge="1" parent="1" source="Ra1Ot_p0R3nydMWMHYjl-48" target="Ra1Ot_p0R3nydMWMHYjl-50">
          <mxGeometry relative="1" as="geometry"/>
        </mxCell>
        <mxCell id="Ra1Ot_p0R3nydMWMHYjl-48" value="平台开票" style="rounded=1;whiteSpace=wrap;html=1;fontSize=14;align=center;" vertex="1" parent="1">
          <mxGeometry x="317" y="556" width="95" height="40" as="geometry"/>
        </mxCell>
        <mxCell id="Ra1Ot_p0R3nydMWMHYjl-50" value="发票邮寄" style="rounded=1;whiteSpace=wrap;html=1;fontSize=14;align=center;" vertex="1" parent="1">
          <mxGeometry x="317" y="654" width="95" height="40" as="geometry"/>
        </mxCell>
      </root>
    </mxGraphModel>
  </diagram>
</mxfile>
